<svg width="30" height="30" viewBox="0 0 30 30" fill="none" xmlns="http://www.w3.org/2000/svg">
<path d="M14.8217 0C18.9075 0.0250131 22.3929 1.36738 25.303 4.11049C28.2048 6.85359 29.7891 10.2554 29.9808 14.2491C30.181 18.518 28.8135 22.2533 25.8533 25.3466C22.9433 28.3899 19.3494 29.9574 15.1302 29.999C11.2028 30.0407 7.75907 28.7234 4.87399 26.0636C1.47193 22.9203 -0.162392 18.9849 0.012714 14.3575C0.154466 10.4805 1.64704 7.14541 4.39036 4.41064C7.28378 1.51746 10.8193 0.0750393 14.8217 0Z" fill="#0087CB"/>
<path d="M11.5899 16.3509C11.0255 16.1868 10.4554 16.0173 9.89102 15.8533C9.61459 15.7712 9.33816 15.6892 9.06174 15.6072C8.95808 15.5743 8.86018 15.5415 8.77379 15.4814C8.61255 15.3665 8.60103 15.2243 8.73924 15.0822C8.83138 14.9837 8.94656 14.9181 9.07326 14.8689C9.40727 14.7431 9.74129 14.6173 10.0753 14.4915C12.3789 13.6493 14.6824 12.8017 16.9917 11.9595C17.7231 11.6915 18.4487 11.4236 19.1801 11.1556C19.278 11.1173 19.3816 11.0954 19.4911 11.1118C19.7099 11.1446 19.8769 11.3142 19.8999 11.5329C19.9115 11.6532 19.9057 11.7736 19.8827 11.8939C19.6005 13.1517 19.3183 14.415 19.0361 15.6728C18.8058 16.7118 18.5696 17.7509 18.3393 18.7954C18.2875 19.0306 18.2356 19.2658 18.1838 19.5009C18.1608 19.6158 18.1262 19.7251 18.0686 19.829C17.9534 20.0314 17.7692 20.108 17.533 20.0642C17.3891 20.0369 17.2624 19.9767 17.1472 19.8947C16.3525 19.3369 15.5578 18.7736 14.7573 18.2158C14.7227 18.1884 14.6824 18.1665 14.6478 18.1447C14.5096 18.1064 14.4117 18.0079 14.3023 17.9314C13.9222 17.6689 13.5421 17.3954 13.1621 17.1329C13.1333 17.1111 13.1045 17.0892 13.0814 17.0619C13.0469 17.0072 13.0814 16.9744 13.116 16.9415C13.6343 16.504 14.1468 16.0556 14.6651 15.6181C15.0395 15.2954 15.4195 14.9728 15.7939 14.6501C16.1682 14.3275 16.5425 14.0103 16.9168 13.6931C17.2105 13.4415 17.5043 13.1954 17.7922 12.9439C17.8152 12.922 17.8383 12.9001 17.8613 12.8782C17.8786 12.8564 17.9016 12.8345 17.8901 12.8072C17.8786 12.7743 17.844 12.7743 17.8152 12.7743C17.7116 12.7634 17.6252 12.8017 17.5388 12.8509C17.2221 13.0314 16.9168 13.2228 16.6059 13.4087C15.6614 13.972 14.7112 14.5408 13.7667 15.104C13.116 15.4923 12.4652 15.8806 11.8145 16.2743C11.7396 16.3126 11.6878 16.3837 11.5899 16.3509Z" fill="#FCFDFE"/>
<path d="M11.5898 16.3507C11.7453 16.2905 11.8778 16.1921 12.0218 16.11C12.4364 15.864 12.851 15.6179 13.2657 15.3663C13.5594 15.1913 13.8473 15.0108 14.141 14.8358C14.6247 14.546 15.1142 14.2561 15.6037 13.9663C15.9435 13.764 16.2833 13.5561 16.6288 13.3483C16.9283 13.1679 17.2277 12.9874 17.5272 12.8069C17.6251 12.7522 17.723 12.7194 17.8439 12.7304C17.8785 12.7358 17.913 12.7358 17.9245 12.7686C17.9418 12.8015 17.9303 12.8343 17.9015 12.8671C17.8324 12.9327 17.7691 13.0038 17.6884 13.064C17.5445 13.1733 17.4178 13.2991 17.2796 13.414C17.055 13.5944 16.8476 13.7913 16.6231 13.9718C16.5309 14.0483 16.4445 14.1304 16.3524 14.2069C16.2199 14.3108 16.0932 14.4366 15.9665 14.546C15.7707 14.7155 15.5692 14.8796 15.3734 15.0436C15.287 15.1202 15.1949 15.1968 15.1142 15.2733C14.9012 15.4647 14.6766 15.6452 14.4635 15.8366C14.2043 16.0608 13.9394 16.2796 13.6861 16.5093C13.5018 16.6733 13.306 16.8265 13.1159 16.985C13.0871 17.0069 13.0871 17.0288 13.1044 17.0561C13.0641 17.6741 13.018 18.2921 12.9777 18.91C12.9662 19.0741 12.9432 19.2327 12.9489 19.3968C12.9489 19.446 12.9489 19.4897 12.9086 19.528C12.8741 19.5389 12.8337 19.5389 12.7992 19.5389C12.6955 19.5335 12.6207 19.4843 12.5919 19.3913C12.5631 19.2929 12.5285 19.1999 12.4997 19.1014C12.2176 18.221 11.9354 17.335 11.6532 16.4546C11.6244 16.4163 11.6071 16.3835 11.5898 16.3507Z" fill="#CCD9E9"/>
<path d="M12.8912 19.5228C12.874 19.3095 12.9143 19.0962 12.92 18.8884C12.9315 18.6587 12.9546 18.4291 12.9661 18.1994C12.9834 17.9642 13.0007 17.7291 13.0179 17.4994C13.0237 17.3791 13.0352 17.2587 13.0352 17.1439C13.0352 17.1056 13.0467 17.0783 13.087 17.0564C13.5535 17.3845 14.02 17.7072 14.4807 18.0353C14.5325 18.0736 14.5901 18.1009 14.6304 18.1501C14.1985 18.5494 13.7608 18.9486 13.3289 19.3478C13.2137 19.4572 13.0755 19.5447 12.8912 19.5228Z" fill="#B1C8DB"/>
</svg>
