<svg width="30" height="30" viewBox="0 0 30 30" fill="none" xmlns="http://www.w3.org/2000/svg">
<path d="M15 30C23.2843 30 30 23.2843 30 15C30 6.71573 23.2843 0 15 0C6.71573 0 0 6.71573 0 15C0 23.2843 6.71573 30 15 30Z" fill="#45668E"/>
<path d="M11.2374 10.4554C11.3379 10.196 11.522 10.0369 11.7564 9.91974C12.2 9.7021 12.6771 9.63514 13.1543 9.64351C13.8406 9.66025 14.527 9.7021 15.205 9.72721C15.5147 9.74395 15.8161 9.75232 16.109 9.86951C16.5443 10.0453 16.7703 10.3717 16.7871 10.8321C16.7954 11.2004 16.7452 11.5771 16.7285 11.9538C16.7034 12.749 16.6699 13.5442 16.6699 14.3394C16.6699 14.5905 16.7787 14.8416 16.8457 15.0927C16.8624 15.1597 16.9126 15.2267 16.9545 15.2852C17.1219 15.5196 17.1721 15.5196 17.4065 15.369C17.8417 15.0927 18.1682 14.7161 18.4612 14.2975C18.863 13.7283 19.2145 13.1424 19.5159 12.523C19.8088 11.9036 20.1102 11.2758 20.3864 10.648C20.5203 10.3299 20.738 10.196 21.0811 10.2043C22.3618 10.2127 23.6509 10.2127 24.9316 10.2043C25.3417 10.2043 25.6347 10.5559 25.5426 10.9577C25.4422 11.3846 25.2497 11.7696 25.0237 12.1296C24.3875 13.1675 23.676 14.1469 22.8724 15.0592C22.5878 15.3773 22.3367 15.7205 22.2028 16.139C22.0605 16.5911 22.1526 16.9928 22.4874 17.3277C23.0817 17.922 23.7011 18.4995 24.2787 19.1106C24.6219 19.4705 24.9232 19.8723 25.2246 20.2741C25.4171 20.5252 25.5426 20.8265 25.5092 21.1614C25.4673 21.538 25.2831 21.7306 24.9065 21.7473C24.1866 21.7892 23.4584 21.8143 22.7301 21.8477C22.3116 21.8645 21.8847 21.8896 21.4662 21.9063C21.1314 21.9231 20.83 21.7975 20.5454 21.6301C20.0934 21.3706 19.7084 21.0191 19.3401 20.6508C18.955 20.2741 18.5951 19.8807 18.3021 19.4203C18.118 19.1273 17.6074 18.9683 17.2893 19.0938C17.0382 19.1859 16.921 19.3868 16.8959 19.6379C16.854 20.0565 16.8289 20.4666 16.7954 20.8851C16.7452 21.3957 16.4271 21.7138 15.9165 21.7808C14.9121 21.9147 13.916 21.8645 12.9283 21.672C12.2 21.5297 11.5722 21.1781 10.9779 20.7512C10.1576 20.1736 9.46285 19.4621 8.80995 18.7172C8.47513 18.3238 8.17379 17.8969 7.8892 17.47C6.96007 16.1056 6.08116 14.7161 5.31944 13.2512C4.95114 12.5481 4.58284 11.8533 4.39032 11.0749C4.34846 10.8991 4.32335 10.7233 4.28987 10.5475C4.27313 10.4638 4.30661 10.3969 4.38194 10.3717C4.59121 10.3048 4.80047 10.2127 5.00973 10.2043C5.68775 10.1792 6.37413 10.1792 7.05214 10.1709C7.34511 10.1709 7.63808 10.196 7.93105 10.1876C8.32446 10.1709 8.59232 10.3466 8.75973 10.6815C8.92714 11.0163 9.07781 11.3595 9.23685 11.6943C9.81442 12.8996 10.4422 14.0799 11.2625 15.1429C11.3797 15.302 11.5639 15.4275 11.7396 15.528C11.9489 15.6452 12.1331 15.5866 12.2586 15.3773C12.4093 15.1346 12.4762 14.8584 12.4846 14.5738C12.493 13.7702 12.5181 12.9666 12.5097 12.163C12.5014 11.3344 12.0912 10.7819 11.3044 10.4806C11.2876 10.4806 11.2625 10.4722 11.2374 10.4554Z" fill="white"/>
</svg>
