<svg width="30" height="30" viewBox="0 0 30 30" fill="none" xmlns="http://www.w3.org/2000/svg">
<path d="M15 30C23.2843 30 30 23.2843 30 15C30 6.71573 23.2843 0 15 0C6.71573 0 0 6.71573 0 15C0 23.2843 6.71573 30 15 30Z" fill="#25D366"/>
<path d="M20.6436 7.80132C18.8806 6.03647 16.5367 5.06428 14.0391 5.06311C8.89368 5.06311 4.70492 9.25093 4.70328 14.3985C4.70234 16.0443 5.13242 17.6505 5.94922 19.0656L4.625 23.9036L9.57383 22.6056C10.9377 23.3488 12.4728 23.7409 14.0354 23.7416H14.0394C19.1849 23.7416 23.3729 19.5531 23.375 14.4058C23.3762 11.9116 22.4056 9.56593 20.6436 7.80132ZM14.0394 22.1648H14.0363C12.6434 22.1643 11.278 21.7902 10.0864 21.0834L9.80305 20.9151L6.86633 21.6855L7.64985 18.8223L7.46539 18.528C6.68844 17.2928 6.27805 15.8652 6.27899 14.3985C6.28039 10.1205 9.76157 6.63975 14.0417 6.63975C16.1145 6.64022 18.0624 7.44858 19.5277 8.91553C20.9928 10.3823 21.7991 12.3316 21.7986 14.4051C21.7972 18.6838 18.316 22.1648 14.0394 22.1648ZM18.2956 16.3534C18.0622 16.2365 16.9154 15.6728 16.7014 15.5943C16.4874 15.5165 16.3325 15.4778 16.1769 15.7112C16.0213 15.9447 15.5743 16.4704 15.4379 16.626C15.302 16.7816 15.166 16.8013 14.9326 16.6844C14.6991 16.5674 13.9477 16.3213 13.0574 15.5263C12.3636 14.9083 11.8953 14.1437 11.7594 13.9103C11.6234 13.6769 11.7449 13.551 11.8618 13.4345C11.9668 13.33 12.0952 13.1622 12.2117 13.0258C12.3282 12.8894 12.3671 12.7921 12.4449 12.6367C12.5227 12.4811 12.4841 12.3449 12.4255 12.2282C12.3669 12.1112 11.9005 10.963 11.7064 10.4959C11.5168 10.041 11.3246 10.1026 11.1816 10.0956C11.0452 10.0891 10.8899 10.0872 10.7345 10.0872C10.5791 10.0872 10.3262 10.1455 10.1124 10.3792C9.89891 10.6126 9.2961 11.1768 9.2961 12.3255C9.2961 13.4734 10.1319 14.583 10.2486 14.7383C10.3653 14.8937 11.8934 17.2504 14.2334 18.2608C14.7899 18.5008 15.2246 18.6444 15.5633 18.7523C16.122 18.9301 16.6306 18.9046 17.0328 18.8446C17.481 18.7778 18.4128 18.2805 18.6076 17.7355C18.8019 17.1909 18.8019 16.724 18.7431 16.6265C18.6842 16.5287 18.5286 16.4704 18.2956 16.3534Z" fill="white"/>
</svg>
